<?xml version="1.0" encoding="iso-8859-1"?>
<!-- Uploaded to: SVG Repo, www.svgrepo.com, Generator: SVG Repo Mixer Tools -->
<svg fill="#DB9C31"  version="1.1" id="Layer_1" xmlns="http://www.w3.org/2000/svg" xmlns:xlink="http://www.w3.org/1999/xlink" 
	 viewBox="0 0 512 512" xml:space="preserve">
<g>
	<g>
		<path d="M114.378,159.418c-8.145-23.273-9.309-43.055-4.655-64c2.327-5.818-1.164-11.636-8.145-13.964
			c-5.818-1.164-11.636,2.327-13.964,9.309c-5.818,24.436-4.655,48.873,4.655,75.636c2.327,4.655,6.982,8.145,11.636,8.145
			c1.164,0,2.327,0,3.491,0C113.214,172.218,116.705,166.4,114.378,159.418z"/>
	</g>
</g>
<g>
	<g>
		<path d="M422.741,90.764c-1.164-5.818-8.145-10.473-13.964-8.145c-5.818,1.164-10.473,8.145-8.146,13.964
			c4.655,19.782,3.491,39.564-4.655,64c-2.327,4.655,1.164,11.636,6.982,13.964c1.164,0,2.327,0,3.491,0
			c4.655,0,9.309-3.491,11.636-8.145C427.396,138.473,428.559,114.036,422.741,90.764z"/>
	</g>
</g>
<g>
	<g>
		<path d="M366.887,165.236c-12.8-8.145-18.618-23.273-15.127-37.236c8.145-33.745,31.418-64,65.164-97.745
			c27.927,52.364,32.582,96.582,15.127,152.436c-2.327,5.818,1.164,12.8,6.982,15.127s12.8-1.164,15.127-6.982
			c22.109-67.491,13.964-119.855-24.436-183.855C426.232,2.327,422.741,0,419.25,0c-3.491,0-6.982,1.164-9.309,3.491
			c-41.891,41.891-70.982,77.964-81.455,119.855c-5.818,23.273,4.655,47.709,25.6,61.673
			c40.727,26.764,82.618,88.436,87.273,164.073c-72.145,4.655-139.636,54.691-139.636,104.727c0,16.291-15.127,30.255-34.909,33.745
			v-40.727l19.782-19.782c4.655-4.655,4.655-11.636,1.164-16.291c-6.982-8.145-16.291-13.964-26.764-15.127
			c-13.964-2.327-27.927,3.491-37.236,15.127c-3.491,4.655-3.491,11.636,1.164,16.291l19.782,19.782v40.727
			c-19.782-3.491-34.909-17.455-34.909-33.745c0-50.036-67.491-98.909-139.636-104.727c3.491-76.8,45.382-137.309,87.273-164.073
			c20.945-13.964,31.418-38.4,25.6-61.673c-10.473-41.891-39.564-77.964-81.455-119.855C98.087,1.164,94.596,0,91.105,0
			c-3.491,0-6.982,2.327-8.145,5.818c-39.564,64-46.545,117.527-25.6,183.855c2.327,5.818,8.145,9.309,15.127,6.982
			c5.818-2.327,9.309-8.145,6.982-15.127C62.014,128,66.669,82.618,94.596,30.255c33.745,34.909,57.018,65.164,65.164,97.745
			c3.491,13.964-3.491,29.091-15.127,37.236c-46.545,30.255-98.909,98.909-98.909,195.491c0,6.982,4.655,11.636,11.636,11.636
			c61.673,0,128,41.891,128,81.455c0,32.582,31.418,58.182,69.818,58.182c38.4,0,69.818-25.6,69.818-58.182
			c0-39.564,66.327-81.455,128-81.455c6.982,0,11.636-4.655,11.636-11.636C464.632,264.145,412.269,195.491,366.887,165.236z"/>
	</g>
</g>
<g>
	<g>
		<path d="M366.887,245.527c-2.327-1.164-5.818-1.164-9.309-1.164l-24.436,4.655c-24.436,5.818-41.891,26.764-43.055,51.2
			c-6.982,17.455-10.473,38.4-11.636,60.509c0,6.982,4.655,11.636,11.636,11.636c5.818,0,11.636-4.655,11.636-11.636
			c1.164-17.455,3.491-33.745,9.309-48.873l17.455-3.491c25.6-4.655,43.055-27.927,43.055-53.527
			C371.541,251.345,370.378,247.855,366.887,245.527z M322.669,286.255l-5.818,1.164c4.655-8.145,12.8-12.8,20.945-15.127
			l5.818-1.164C338.959,279.273,331.978,285.091,322.669,286.255z"/>
	</g>
</g>
<g>
	<g>
		<path d="M231.905,301.382c-1.164-24.436-18.618-45.382-43.055-50.036l-24.436-6.982c-3.491,0-6.982,0-9.309,2.327
			c-3.491,2.327-4.655,5.818-4.655,9.309c0,25.6,18.618,47.709,43.055,53.527l17.455,3.491c4.655,13.964,8.145,31.418,9.309,48.873
			c0,5.818,5.818,11.636,11.636,11.636c6.982,0,11.636-5.818,11.636-11.636C242.378,339.782,238.887,318.836,231.905,301.382z
			 M199.323,286.255c-9.309-2.327-16.291-8.145-20.945-15.127l5.818,1.164c9.309,2.327,16.291,8.146,20.945,15.127L199.323,286.255z
			"/>
	</g>
</g>
<g>
	<g>
		<path d="M307.541,140.8c-12.8-6.982-27.927-11.636-44.218-12.8c-22.109-1.164-44.218,3.491-61.673,12.8
			c-5.818,3.491-6.982,10.473-3.491,16.291c3.491,5.818,10.473,6.982,16.291,4.655c12.8-6.982,30.255-10.473,47.709-9.309
			c12.8,1.164,24.436,4.655,33.745,9.309c1.164,1.164,3.491,1.164,5.818,1.164c3.491,0,8.145-2.327,10.473-5.818
			C315.687,151.273,313.359,144.291,307.541,140.8z"/>
	</g>
</g>
</svg>